HIERARCHY
ROOT Hips
{
 OFFSET 0.000000 0.000000 0.000000
 CHANNELS 6 Xposition Yposition Zposition Yrotation Xrotation Zrotation
 JOINT Chest
 {
  OFFSET 0.000000 11.395451 -0.039534
  CHANNELS 3 Yrotation Xrotation Zrotation
  JOINT Chest2
  {
   OFFSET 0.000000 9.398669 0.071813
   CHANNELS 3 Yrotation Xrotation Zrotation
   JOINT Chest3
   {
    OFFSET 0.000000 8.489801 0.000000
    CHANNELS 3 Yrotation Xrotation Zrotation
    JOINT Chest4
    {
     OFFSET 0.000000 8.489801 0.000000
     CHANNELS 3 Yrotation Xrotation Zrotation
     JOINT Neck
     {
      OFFSET 0.000000 12.404889 0.000000
      CHANNELS 3 Yrotation Xrotation Zrotation
      JOINT Head
      {
       OFFSET 0.000000 8.903270 0.092239
       CHANNELS 3 Yrotation Xrotation Zrotation
       End Site
       {
        OFFSET 0.000000 17.592497 0.007158
       }
      }
     }
     JOINT RightCollar
     {
      OFFSET -3.196775 6.966722 0.000000
      CHANNELS 3 Yrotation Xrotation Zrotation
      JOINT RightShoulder
      {
       OFFSET -15.955896 0.000000 0.000000
       CHANNELS 3 Yrotation Xrotation Zrotation
       JOINT RightElbow
       {
        OFFSET -24.792472 0.000000 0.000000
        CHANNELS 3 Yrotation Xrotation Zrotation
        JOINT RightWrist
        {
         OFFSET -20.900115 0.000000 0.025002
         CHANNELS 3 Yrotation Xrotation Zrotation
         End Site
         {
          OFFSET -16.056692 0.000000 0.000000
         }
        }
       }
      }
     }
     JOINT LeftCollar
     {
      OFFSET 3.196775 6.966722 0.000000
      CHANNELS 3 Yrotation Xrotation Zrotation
      JOINT LeftShoulder
      {
       OFFSET 15.955896 0.000000 0.000000
       CHANNELS 3 Yrotation Xrotation Zrotation
       JOINT LeftElbow
       {
        OFFSET 24.792472 0.000000 0.000000
        CHANNELS 3 Yrotation Xrotation Zrotation
        JOINT LeftWrist
        {
         OFFSET 20.900115 0.000000 0.025002
         CHANNELS 3 Yrotation Xrotation Zrotation
         End Site
         {
          OFFSET 16.056692 0.000000 0.000000
         }
        }
       }
      }
     }
    }
   }
  }
 }
 JOINT RightHip
 {
  OFFSET -9.568995 0.193718 0.019767
  CHANNELS 3 Yrotation Xrotation Zrotation
  JOINT RightKnee
  {
   OFFSET 0.000000 -56.649296 0.015402
   CHANNELS 3 Yrotation Xrotation Zrotation
   JOINT RightAnkle
   {
    OFFSET 0.000000 -41.365147 0.021264
    CHANNELS 3 Yrotation Xrotation Zrotation
    JOINT RightToe
    {
     OFFSET 0.000000 -7.465940 17.672538
     CHANNELS 3 Yrotation Xrotation Zrotation
     End Site
     {
      OFFSET 0.000000 -1.736315 7.837145
     }
    }
   }
  }
 }
 JOINT LeftHip
 {
  OFFSET 9.568995 0.193718 0.019767
  CHANNELS 3 Yrotation Xrotation Zrotation
  JOINT LeftKnee
  {
   OFFSET 0.000000 -56.649296 0.015402
   CHANNELS 3 Yrotation Xrotation Zrotation
   JOINT LeftAnkle
   {
    OFFSET 0.000000 -41.365147 0.021264
    CHANNELS 3 Yrotation Xrotation Zrotation
    JOINT LeftToe
    {
     OFFSET 0.000000 -7.465940 17.672538
     CHANNELS 3 Yrotation Xrotation Zrotation
     End Site
     {
      OFFSET 0.000000 -1.736315 7.837145
     }
    }
   }
  }
 }
}
MOTION
Frames: 7
Frame Time: 0.016667
-30.779371 104.289999 279.868652 -39.306488 6.490149 0.457858 -1.655745 6.252808 0.818086 -0.745796 2.776099 0.385375 -0.745796 2.776099 0.385375 -0.560989 2.081608 0.292365 -2.277057 11.831459 0.379554 -4.524400 -14.162028 1.708524 0.028634 7.350659 4.232744 10.236844 -22.410994 47.512580 51.774081 -37.221762 22.404783 -2.979972 -21.857680 5.786504 3.008085 6.932954 -4.258732 -1.042355 -24.103786 -53.102128 -34.091745 -52.386214 -47.722546 16.887034 -13.570881 -3.214878 -9.970596 -24.667144 3.631757 2.608979 14.115079 -1.516623 -0.470900 0.643424 -0.292709 0.000000 0.000000 0.000000 20.792163 -30.743384 -3.954731 0.950341 61.435612 5.247570 0.566221 -7.874158 -1.287809 -0.456833 -2.553001 -2.158716
-31.108672 104.415653 280.001902 -38.788762 7.156052 0.666971 -1.744606 6.229289 0.809169 -0.785055 2.765465 0.382525 -0.785043 2.765433 0.382520 -0.590392 2.073569 0.290386 -2.320227 11.766930 0.374873 -4.607697 -14.280332 1.721122 0.085500 7.500736 4.261653 10.510215 -23.184654 47.566557 51.568408 -37.051390 22.240318 -2.884577 -21.785209 5.828121 2.907352 7.088325 -4.252969 -1.024442 -24.293800 -53.243014 -34.052682 -52.746752 -47.484754 16.765085 -13.557068 -3.451144 -10.282931 -25.099378 3.607465 2.429919 14.070453 -1.551494 -0.498173 0.504469 -0.499094 0.000000 0.000000 0.000000 20.386322 -31.843598 -4.148882 2.119284 59.488957 5.197099 0.408375 -8.452932 -1.045031 -0.354352 -0.746991 -1.705960
-31.428658 104.562287 280.162893 -38.118705 7.838983 0.926427 -1.919307 6.155534 0.792367 -0.862269 2.732452 0.377124 -0.862263 2.732424 0.377120 -0.648259 2.048776 0.286642 -2.362720 11.735285 0.347314 -4.678461 -14.338651 1.688126 0.117171 7.721291 4.285953 10.716946 -23.973740 47.710331 51.376743 -36.799049 22.102906 -2.828437 -21.713263 5.881999 2.788025 7.320583 -4.258323 -1.072660 -24.387915 -53.390293 -34.156153 -53.192625 -47.044452 16.591379 -13.543165 -3.626726 -11.298439 -25.397467 3.786778 2.651237 13.779377 -1.612294 -0.404698 0.470018 -0.719692 0.000000 0.000000 0.000000 19.151607 -32.741609 -4.023136 3.877323 56.694787 5.029963 -0.252923 -8.729160 -0.945072 -0.136449 -0.227984 -0.736789
-31.721178 104.707151 280.339780 -37.499621 8.528978 1.165539 -2.049722 6.071293 0.794634 -0.920080 2.694830 0.379509 -0.920080 2.694830 0.379509 -0.691608 2.020558 0.288640 -2.429909 11.700917 0.309570 -4.792257 -14.401560 1.646439 0.119180 7.931023 4.292645 10.899976 -24.629932 47.773238 51.206267 -36.571078 21.983773 -2.744030 -21.699562 5.947843 2.673738 7.512056 -4.275357 -1.145252 -24.506926 -53.510528 -34.197128 -53.498192 -46.691749 16.438297 -13.534815 -3.825829 -12.101901 -25.693157 3.890123 2.758540 13.422057 -1.620797 -0.327358 0.474508 -0.898404 0.000000 -0.000000 0.000000 17.766775 -33.370239 -3.841769 4.888620 53.320066 4.316512 -0.723120 -8.882849 -1.073671 0.000000 -0.000000 0.000000
-31.977698 104.850787 280.525697 -36.965615 9.238083 1.368889 -2.095931 5.982527 0.823631 -0.940837 2.655181 0.392599 -0.940830 2.655186 0.392599 -0.707198 1.990794 0.298488 -2.541989 11.643549 0.259565 -4.987798 -14.505941 1.601857 0.069025 8.045419 4.283351 11.031102 -25.042971 47.723202 51.072214 -36.374178 21.890510 -2.620495 -21.776602 6.032107 2.579447 7.590199 -4.319037 -1.238334 -24.694457 -53.573751 -34.057681 -53.553044 -46.551859 16.357835 -13.525577 -4.091795 -12.327731 -26.030315 3.758311 2.514980 13.010218 -1.528227 -0.316847 0.521871 -1.005354 0.000000 0.000000 0.000000 16.329433 -33.681709 -3.678060 4.823443 49.217307 2.984801 -0.694339 -8.962903 -1.425203 0.023510 0.186547 0.165682
-32.206752 104.992654 280.727511 -36.483610 9.955846 1.549858 -2.097469 5.883217 0.869488 -0.941965 2.610822 0.412536 -0.941957 2.610819 0.412536 -0.708104 1.957482 0.313375 -2.678847 11.583607 0.200000 -5.226914 -14.614496 1.549961 -0.011434 8.149233 4.256922 11.133836 -25.321836 47.598969 50.959335 -36.200952 21.816144 -2.467999 -21.911158 6.128895 2.489663 7.627844 -4.375149 -1.354118 -24.906997 -53.611028 -33.856795 -53.464318 -46.494451 16.297068 -13.519890 -4.379235 -12.337134 -26.363922 3.533053 2.157200 12.532268 -1.380205 -0.322407 0.608218 -1.070243 0.000000 -0.000000 0.000000 14.740985 -33.721498 -3.463792 4.382977 44.495642 1.520555 -0.434789 -8.938738 -1.958758 0.009650 0.093705 0.082645
-32.415792 105.108390 280.953979 -36.159247 10.641823 1.674301 -2.043503 5.795544 0.931339 -0.918672 2.571684 0.438932 -0.918672 2.571684 0.438932 -0.690737 1.928110 0.333012 -2.805047 11.546270 0.150748 -5.449224 -14.680992 1.512215 -0.061008 8.415321 4.196536 11.330917 -25.644364 47.328666 50.829253 -36.137909 21.732324 -2.250345 -22.061867 6.219005 2.382888 7.724846 -4.399555 -1.458502 -25.134245 -53.682634 -33.736059 -53.331132 -46.431809 16.171650 -13.539823 -4.638481 -12.299145 -26.696730 3.367918 1.881556 12.132591 -1.238416 -0.328431 0.656184 -1.126106 0.000000 -0.000000 0.000000 13.408644 -33.558439 -3.292186 3.772659 39.815811 0.337945 -0.122768 -8.890532 -2.669746 0.000000 0.000000 0.000000
